#!OML:ASF F:\VICON\USERDATA\INSTALL\rory3\rory3.ASF
:FULLY-SPECIFIED
:DEGREES
11
root 4.94567 17.9477 -13.314400000000052 -3.774210000000001 -5.53769 0.09509380000000167
lfemur -12.853699999999995 -0.10932900000000156 -24.744400000000002
ltibia 29.573499999999996
lfoot -10.024700000000001 0.6503979999999987
ltoes 7.968170000000012
rfemur -15.936600000000006 2.722880000000006 21.63000000000001
rtibia 75.48109999999997
rfoot 1.647729999999985 -1.4519900000000083
rtoes 6.79385
lowerback nan 1.310370000000002 -0.657532
upperback 0.430503 1.6910200000000013 0.5594110000000005
thorax -5.784930000000001 0.8554369999999996 0.6883829999999992
lowerneck -15.636700000000001 -3.4129199999999997 -1.9555599999999997
upperneck 23.118100000000002 -4.255950000000001 -0.12107900000000016
head 9.973259999999998 -2.1576899999999997 -0.273549
lclavicle -2.048720000000001e-14 6.957460000000015e-15
lhumerus -35.498900000000006 4.221749999999992 81.4812
lradius 23.91090000000001
lwrist 3.616830000000001
lhand -24.329100000000004 31.872000000000003
lfingers nan
lthumb 2.159500000000003 61.84080000000001
rclavicle -2.048720000000001e-14 6.957460000000015e-15
rhumerus -30.1452 -21.31899999999999 -76.8057
rradius 25.3189
rwrist 6.029549999999999
rhand -18.096 nan
rfingers nan
rthumb 8.17766 -5.8281
12
root 4.960329999999999 17.9593 -12.642799999999948 -3.7189299999999985 -4.522710000000003 0.03301110000000218
lfemur -10.458400000000001 -0.3610890000000013 -25.095600000000008
ltibia 29.374800000000004
lfoot -11.852500000000006 1.306540000000001
ltoes 4.866580000000011
rfemur -20.7001 1.4768799999999969 21.6353
rtibia 75.27999999999994
rfoot -3.3106000000000035 -1.7785799999999927
rtoes 6.608280000000004
lowerback nan 0.7706819999999996 -0.5714660000000018
upperback 0.4684769999999999 1.0002699999999998 0.8276710000000017
thorax -5.780850000000001 0.5172300000000001 1.03023
lowerneck -15.7419 -3.24501 -1.9699800000000003
upperneck 23.108900000000002 -3.94721 -0.38308899999999757
head 9.981649999999998 -2.04689 -0.3237809999999997
lclavicle 9.324239999999999e-15 1.8685800000000012e-14
lhumerus -34.4764 3.743819999999989 81.4444
lradius 24.664899999999992
lwrist 4.610019999999997
lhand -24.465299999999996 29.928500000000014
lfingers nan
lthumb 2.027969999999998 59.89860000000001
rclavicle 9.324239999999999e-15 1.8685800000000012e-14
rhumerus -30.718399999999995 -22.192699999999995 -76.2191
rradius 24.4723
rwrist 6.792990000000008
rhand -17.7327 nan
rfingers nan
rthumb 8.52825 -6.318099999999999
13
root 4.97685 17.9325 -11.972499999999954 -3.437900000000001 -3.35475 0.7182389999999943
lfemur -8.253709999999998 -0.7209320000000023 -26.236299999999986
ltibia 29.193000000000005
lfoot -13.593199999999998 1.7587299999999897
ltoes 1.910469999999993
rfemur -25.080600000000015 0.06126119999999613 20.8161
rtibia 72.62200000000004
rfoot -7.57616 -2.333010000000002
rtoes 3.2201099999999983
lowerback nan 0.06591519999999895 -1.4555999999999958
upperback 0.19700799999999996 -0.02649369999999851 1.1936599999999997
thorax -6.08229 0.046993799999999364 2.07982
lowerneck -15.5171 -2.98501 -2.55374
upperneck 23.037299999999995 -3.367440000000001 -0.6447519999999984
head 9.917470000000002 -1.8623 -0.23720299999999922
lclavicle 2.4848100000000006e-16 5.168400000000011e-15
lhumerus -34.2116 2.8574099999999927 81.9735
lradius 26.419
lwrist 4.978200000000002
lhand -23.927499999999995 31.066300000000012
lfingers nan
lthumb 2.547419999999996 61.030799999999985
rclavicle 2.4848100000000006e-16 5.168400000000011e-15
rhumerus -31.734400000000004 -20.7511 -75.9213
rradius 24.721400000000003
rwrist 5.5268899999999945
rhand -19.0105 nan
rfingers nan
rthumb 7.295039999999999 -7.709190000000002
14
root 4.970519999999999 17.8716 -11.311200000000039 -3.189250000000001 -2.65369 0.920942999999999
lfemur -6.1376700000000035 -1.07354 -26.719799999999985
ltibia 29.432399999999994
lfoot -15.765199999999995 2.4793500000000095
ltoes 4.073280000000005
rfemur -28.87139999999998 -0.8132759999999859 20.785200000000003
rtibia 67.7258
rfoot -9.204529999999997 -3.22597
rtoes 4.29301
lowerback nan -0.13422000000000034 -1.630160000000006
upperback 0.48097200000000007 -0.31611899999999726 1.2221599999999992
thorax -5.883009999999999 -0.09464310000000048 2.255190000000002
lowerneck -16.6599 -2.9284899999999996 -2.27423
upperneck 22.739599999999996 -3.3473499999999996 -0.5586009999999981
head 10.022199999999998 -1.81379 -0.2664389999999997
lclavicle -6.659289999999993e-15 -1.5107600000000033e-14
lhumerus -32.6919 -0.8344660000000004 82.9876
lradius 28.1751
lwrist 8.1488
lhand -26.5449 32.11469999999999
lfingers nan
lthumb 0.01948560000000024 62.09439999999998
rclavicle -6.659289999999993e-15 -1.5107600000000033e-14
rhumerus -32.0136 -20.906 -76.1353
rradius 25.353299999999997
rwrist 4.412649999999999
rhand -19.583600000000004 nan
rfingers nan
rthumb 6.741779999999999 -7.913099999999997
